<svg id="svg" version="1.1" xmlns="http://www.w3.org/2000/svg" xmlns:xlink="http://www.w3.org/1999/xlink" width="400" height="400" viewBox="0, 0, 400,400"><g id="svgg"><path id="path0" d="M116.427 184.621 C 74.047 187.668,43.282 226.826,50.313 268.769 C 55.650 300.604,82.032 325.393,114.081 328.689 C 116.439 328.931,122.915 328.976,153.680 328.964 L 190.460 328.950 190.328 325.722 C 189.664 309.535,183.365 300.157,171.512 297.709 C 170.327 297.464,168.533 297.400,162.858 297.400 C 147.383 297.400,118.800 297.126,118.800 296.977 C 118.800 296.891,119.272 296.788,119.850 296.747 L 120.900 296.674 119.750 296.637 C 118.912 296.610,118.600 296.672,118.600 296.864 C 118.600 297.986,108.435 295.337,103.760 292.996 C 73.653 277.926,73.854 235.108,104.100 220.387 C 112.164 216.462,113.871 216.280,144.300 216.102 C 163.081 215.993,169.869 215.828,170.451 215.469 C 170.553 215.405,169.623 214.815,168.383 214.156 C 156.849 208.030,146.490 198.676,139.293 187.890 C 138.262 186.345,137.360 184.928,137.288 184.740 C 137.143 184.362,121.290 184.271,116.427 184.621 " stroke="none" fill="#a34cfc" fill-rule="evenodd"></path><path id="path1" d="M229.600 71.214 C 205.008 71.413,200.388 71.510,197.300 71.888 C 139.731 78.936,113.232 146.334,150.590 190.693 C 164.430 207.126,184.217 215.991,207.073 215.998 L 213.245 216.000 211.543 214.211 C 205.494 207.854,202.000 197.377,202.000 185.594 L 202.000 184.047 200.650 183.910 C 187.731 182.601,175.143 173.565,169.207 161.341 C 156.681 135.544,174.469 105.234,203.200 103.418 C 204.905 103.310,215.930 103.167,227.700 103.099 C 239.470 103.031,250.180 102.891,251.500 102.788 C 266.102 101.647,273.435 92.376,274.309 73.950 L 274.448 71.000 261.174 71.033 C 253.873 71.051,239.665 71.133,229.600 71.214 M209.469 187.150 C 210.115 202.628,215.687 211.738,226.400 214.832 C 230.191 215.927,230.536 215.941,261.100 216.205 C 278.461 216.356,282.231 216.438,283.900 216.702 C 309.049 220.686,324.507 245.771,316.480 269.575 C 312.000 282.860,300.864 293.008,287.300 296.166 C 282.732 297.229,282.463 297.238,259.050 297.086 L 237.400 296.945 237.400 295.202 C 237.400 273.350,225.559 260.000,206.179 260.000 L 205.000 260.000 205.000 294.369 L 205.000 328.737 243.950 328.873 C 285.889 329.019,284.663 329.042,290.700 328.004 C 320.525 322.872,344.511 298.691,349.489 268.737 C 356.539 226.320,325.331 187.151,282.459 184.605 C 279.464 184.427,231.396 183.991,215.519 183.997 L 209.337 184.000 209.469 187.150 " stroke="none" fill="#fca404" fill-rule="evenodd"></path><path id="path2" d="" stroke="none" fill="#cc78100" fill-rule="evenodd"></path><path id="path3" d="" stroke="none" fill="#cc7844" fill-rule="evenodd"></path><path id="path4" d="" stroke="none" fill="#1007804" fill-rule="evenodd"></path></g></svg>